<svg width="200" height="60" viewBox="0 0 200 60" fill="none" xmlns="http://www.w3.org/2000/svg">
<path d="M65.6913 44V21.36C65.6913 19.6 66.1846 18.2 67.1713 17.16C68.1579 16.12 69.7046 15.6 71.8113 15.6H75.5713V19.08H72.3713C71.5446 19.08 70.9313 19.3067 70.5312 19.76C70.1313 20.1867 69.9313 20.8 69.9313 21.6V44H65.6913ZM62.7313 26.44V23H75.2513V26.44H62.7313ZM78.8828 44V22.72H82.7628L82.9228 28.36L82.5628 28.24C82.8561 26.32 83.4428 24.92 84.3228 24.04C85.2295 23.16 86.4428 22.72 87.9628 22.72H90.0028V26.52H87.9628C86.8961 26.52 86.0028 26.6933 85.2828 27.04C84.5628 27.3867 84.0161 27.92 83.6428 28.64C83.2961 29.36 83.1228 30.2933 83.1228 31.44V44H78.8828ZM99.0616 44.48C96.8482 44.48 95.0749 43.9733 93.7416 42.96C92.4349 41.9467 91.7816 40.52 91.7816 38.68C91.7816 36.84 92.3282 35.4133 93.4216 34.4C94.5416 33.36 96.2616 32.6133 98.5816 32.16L105.902 30.76C105.902 29.1067 105.515 27.88 104.742 27.08C103.968 26.2533 102.822 25.84 101.302 25.84C99.9416 25.84 98.8749 26.1467 98.1016 26.76C97.3282 27.3467 96.7949 28.2267 96.5016 29.4L92.1416 29.12C92.5416 26.9867 93.5282 25.3067 95.1016 24.08C96.7016 22.8533 98.7682 22.24 101.302 22.24C104.182 22.24 106.368 23.0133 107.862 24.56C109.382 26.08 110.142 28.2267 110.142 31V39.28C110.142 39.7867 110.222 40.1467 110.382 40.36C110.568 40.5467 110.862 40.64 111.262 40.64H112.022V44C111.888 44.0267 111.675 44.0533 111.382 44.08C111.088 44.1067 110.782 44.12 110.462 44.12C109.555 44.12 108.768 43.9733 108.102 43.68C107.462 43.3867 106.982 42.9067 106.662 42.24C106.342 41.5467 106.182 40.6267 106.182 39.48L106.622 39.68C106.408 40.6133 105.942 41.44 105.222 42.16C104.528 42.88 103.635 43.4533 102.542 43.88C101.475 44.28 100.315 44.48 99.0616 44.48ZM99.7416 41.12C101.022 41.12 102.115 40.88 103.022 40.4C103.928 39.8933 104.635 39.2 105.142 38.32C105.648 37.44 105.902 36.44 105.902 35.32V33.96L99.6616 35.16C98.3816 35.4 97.4749 35.7867 96.9416 36.32C96.4349 36.8267 96.1816 37.48 96.1816 38.28C96.1816 39.1867 96.4882 39.8933 97.1016 40.4C97.7416 40.88 98.6216 41.12 99.7416 41.12ZM115.602 44V22.72H119.482L119.642 28.4L119.122 28.12C119.362 26.7333 119.815 25.6133 120.482 24.76C121.148 23.9067 121.962 23.28 122.922 22.88C123.882 22.4533 124.922 22.24 126.042 22.24C127.642 22.24 128.962 22.6 130.002 23.32C131.068 24.0133 131.868 24.9733 132.402 26.2C132.962 27.4 133.242 28.7733 133.242 30.32V44H129.002V31.6C129.002 30.3467 128.868 29.2933 128.602 28.44C128.335 27.5867 127.895 26.9333 127.282 26.48C126.668 26.0267 125.868 25.8 124.882 25.8C123.388 25.8 122.175 26.2933 121.242 27.28C120.308 28.2667 119.842 29.7067 119.842 31.6V44H115.602ZM138.844 44V15.6H143.084V33.24L152.644 22.72H158.004L149.684 31.68L158.324 44H153.444L146.844 34.32L143.084 38.32V44H138.844ZM169.713 44.48C167.686 44.48 165.913 44.0267 164.393 43.12C162.873 42.2133 161.7 40.92 160.873 39.24C160.046 37.56 159.633 35.6 159.633 33.36C159.633 31.0933 160.046 29.1333 160.873 27.48C161.7 25.8267 162.873 24.5467 164.393 23.64C165.913 22.7067 167.686 22.24 169.713 22.24C171.74 22.24 173.513 22.7067 175.033 23.64C176.553 24.5467 177.726 25.8267 178.553 27.48C179.38 29.1333 179.793 31.0933 179.793 33.36C179.793 35.6 179.38 37.56 178.553 39.24C177.726 40.92 176.553 42.2133 175.033 43.12C173.513 44.0267 171.74 44.48 169.713 44.48ZM169.713 40.8C171.526 40.8 172.926 40.1467 173.913 38.84C174.9 37.5067 175.393 35.68 175.393 33.36C175.393 31.04 174.9 29.2267 173.913 27.92C172.926 26.5867 171.526 25.92 169.713 25.92C167.926 25.92 166.526 26.5867 165.513 27.92C164.526 29.2267 164.033 31.04 164.033 33.36C164.033 35.68 164.526 37.5067 165.513 38.84C166.526 40.1467 167.926 40.8 169.713 40.8Z" fill="#1A1919"/>
<path d="M34.9914 14.0228C43.8232 14.0102 50.993 21.1596 51.0055 29.9913C51.0181 38.8231 43.8687 45.9929 35.0369 46.0055C26.2051 46.0181 19.0354 38.8687 19.0228 30.0369C19.0102 21.2051 26.1596 14.0353 34.9914 14.0228Z" fill="#E4F222"/>
<path d="M21.329 45.8304L23.2783 39.1686L27.8516 43.4566L21.329 45.8304Z" fill="#E4F222"/>
<path d="M37.4049 24.4138L27.8101 24.4275Z" fill="#E4F222"/>
<path d="M37.4049 24.4138L27.8101 24.4275" stroke="#1F1F1F" stroke-width="3" stroke-linecap="round" stroke-linejoin="round"/>
<path d="M43.0109 30.8023L27.8191 30.824Z" fill="#E4F222"/>
<path d="M43.0109 30.8023L27.8191 30.824" stroke="#1F1F1F" stroke-width="3" stroke-linecap="round" stroke-linejoin="round"/>
<path d="M32.6255 37.2137L27.8281 37.2206Z" fill="#E4F222"/>
<path d="M32.6255 37.2137L27.8281 37.2206" stroke="#1F1F1F" stroke-width="3" stroke-linecap="round" stroke-linejoin="round"/>
</svg>
