<svg width="161" height="33" viewBox="0 0 161 33" fill="none" xmlns="http://www.w3.org/2000/svg">
<path d="M44.6913 30V7.36C44.6913 5.6 45.1846 4.2 46.1713 3.16C47.1579 2.12 48.7046 1.6 50.8113 1.6H54.5713V5.08H51.3713C50.5446 5.08 49.9313 5.30667 49.5312 5.76C49.1313 6.18667 48.9313 6.8 48.9313 7.6V30H44.6913ZM41.7313 12.44V9H54.2513V12.44H41.7313ZM57.8828 30V8.72H61.7628L61.9228 14.36L61.5628 14.24C61.8561 12.32 62.4428 10.92 63.3228 10.04C64.2295 9.16 65.4428 8.72 66.9628 8.72H69.0028V12.52H66.9628C65.8961 12.52 65.0028 12.6933 64.2828 13.04C63.5628 13.3867 63.0161 13.92 62.6428 14.64C62.2961 15.36 62.1228 16.2933 62.1228 17.44V30H57.8828ZM78.0616 30.48C75.8482 30.48 74.0749 29.9733 72.7416 28.96C71.4349 27.9467 70.7816 26.52 70.7816 24.68C70.7816 22.84 71.3282 21.4133 72.4216 20.4C73.5416 19.36 75.2616 18.6133 77.5816 18.16L84.9016 16.76C84.9016 15.1067 84.5149 13.88 83.7416 13.08C82.9682 12.2533 81.8216 11.84 80.3016 11.84C78.9416 11.84 77.8749 12.1467 77.1016 12.76C76.3282 13.3467 75.7949 14.2267 75.5016 15.4L71.1416 15.12C71.5416 12.9867 72.5282 11.3067 74.1016 10.08C75.7016 8.85333 77.7682 8.24 80.3016 8.24C83.1816 8.24 85.3682 9.01333 86.8616 10.56C88.3816 12.08 89.1416 14.2267 89.1416 17V25.28C89.1416 25.7867 89.2216 26.1467 89.3816 26.36C89.5682 26.5467 89.8616 26.64 90.2616 26.64H91.0216V30C90.8882 30.0267 90.6749 30.0533 90.3816 30.08C90.0882 30.1067 89.7816 30.12 89.4616 30.12C88.5549 30.12 87.7682 29.9733 87.1016 29.68C86.4616 29.3867 85.9816 28.9067 85.6616 28.24C85.3416 27.5467 85.1816 26.6267 85.1816 25.48L85.6216 25.68C85.4082 26.6133 84.9416 27.44 84.2216 28.16C83.5282 28.88 82.6349 29.4533 81.5416 29.88C80.4749 30.28 79.3149 30.48 78.0616 30.48ZM78.7416 27.12C80.0216 27.12 81.1149 26.88 82.0216 26.4C82.9282 25.8933 83.6349 25.2 84.1416 24.32C84.6482 23.44 84.9016 22.44 84.9016 21.32V19.96L78.6616 21.16C77.3816 21.4 76.4749 21.7867 75.9416 22.32C75.4349 22.8267 75.1816 23.48 75.1816 24.28C75.1816 25.1867 75.4882 25.8933 76.1016 26.4C76.7416 26.88 77.6216 27.12 78.7416 27.12ZM94.6016 30V8.72H98.4816L98.6416 14.4L98.1216 14.12C98.3616 12.7333 98.8149 11.6133 99.4816 10.76C100.148 9.90667 100.962 9.28 101.922 8.88C102.882 8.45333 103.922 8.24 105.042 8.24C106.642 8.24 107.962 8.6 109.002 9.32C110.068 10.0133 110.868 10.9733 111.402 12.2C111.962 13.4 112.242 14.7733 112.242 16.32V30H108.002V17.6C108.002 16.3467 107.868 15.2933 107.602 14.44C107.335 13.5867 106.895 12.9333 106.282 12.48C105.668 12.0267 104.868 11.8 103.882 11.8C102.388 11.8 101.175 12.2933 100.242 13.28C99.3082 14.2667 98.8416 15.7067 98.8416 17.6V30H94.6016ZM117.844 30V1.6H122.084V19.24L131.644 8.72H137.004L128.684 17.68L137.324 30H132.444L125.844 20.32L122.084 24.32V30H117.844ZM148.713 30.48C146.686 30.48 144.913 30.0267 143.393 29.12C141.873 28.2133 140.7 26.92 139.873 25.24C139.046 23.56 138.633 21.6 138.633 19.36C138.633 17.0933 139.046 15.1333 139.873 13.48C140.7 11.8267 141.873 10.5467 143.393 9.64C144.913 8.70667 146.686 8.24 148.713 8.24C150.74 8.24 152.513 8.70667 154.033 9.64C155.553 10.5467 156.726 11.8267 157.553 13.48C158.38 15.1333 158.793 17.0933 158.793 19.36C158.793 21.6 158.38 23.56 157.553 25.24C156.726 26.92 155.553 28.2133 154.033 29.12C152.513 30.0267 150.74 30.48 148.713 30.48ZM148.713 26.8C150.526 26.8 151.926 26.1467 152.913 24.84C153.9 23.5067 154.393 21.68 154.393 19.36C154.393 17.04 153.9 15.2267 152.913 13.92C151.926 12.5867 150.526 11.92 148.713 11.92C146.926 11.92 145.526 12.5867 144.513 13.92C143.526 15.2267 143.033 17.04 143.033 19.36C143.033 21.68 143.526 23.5067 144.513 24.84C145.526 26.1467 146.926 26.8 148.713 26.8Z" fill="#1A1919"/>
<path d="M17.9914 0.0227511C26.8232 0.0101694 33.993 7.15955 34.0055 15.9913C34.0181 24.8231 26.8687 31.9929 18.0369 32.0055C9.20515 32.0181 2.03536 24.8687 2.02278 16.0369C2.0102 7.20512 9.15958 0.0353328 17.9914 0.0227511Z" fill="#E4F222"/>
<path d="M4.32898 31.8304L6.27826 25.1686L10.8516 29.4566L4.32898 31.8304Z" fill="#E4F222"/>
<path d="M20.4049 10.4138L10.8101 10.4275Z" fill="#E4F222"/>
<path d="M20.4049 10.4138L10.8101 10.4275" stroke="#1F1F1F" stroke-width="3" stroke-linecap="round" stroke-linejoin="round"/>
<path d="M26.0109 16.8023L10.8191 16.824Z" fill="#E4F222"/>
<path d="M26.0109 16.8023L10.8191 16.824" stroke="#1F1F1F" stroke-width="3" stroke-linecap="round" stroke-linejoin="round"/>
<path d="M15.6255 23.2137L10.8281 23.2206Z" fill="#E4F222"/>
<path d="M15.6255 23.2137L10.8281 23.2206" stroke="#1F1F1F" stroke-width="3" stroke-linecap="round" stroke-linejoin="round"/>
</svg>
